<svg xmlns="http://www.w3.org/2000/svg" width="126" height="68" viewBox="0 0 126 68">
    <path fill="#000" fill-rule="evenodd" d="M27.67 59.377a5.95 5.95 0 0 1-.551-.14 14.278 14.278 0 0 1-.502-.166v-.354h2.753v.354c-.236.131-.53.233-.88.306l-2.766 7.906-.674.147-3.12-8.053a5.755 5.755 0 0 1-.477-.14A11.338 11.338 0 0 1 21 59.07v-.354h3.243v.354a6.37 6.37 0 0 1-1.004.306l2.093 5.593.257.979h.024l.246-1.004 1.81-5.568zm10.915-.66c-.008.326-.022.654-.043.985-.02.33-.05.663-.091.997h-.319l-.501-1.346h-2.668v3.243h1.995l.477-.906h.306c.049.808.049 1.632 0 2.472h-.306l-.477-.93h-1.995v3.415h2.815l.6-1.469h.305c.057.343.098.69.123 1.04.024.351.028.706.012 1.065h-6.033v-.355c.285-.13.62-.228 1.003-.294v-7.257a4.95 4.95 0 0 1-.501-.128 6.403 6.403 0 0 1-.502-.178v-.354h5.8zm9.986 0h2.644v.354a3.766 3.766 0 0 1-1.004.49v7.869h-.697l-4.443-6.744-.477-.954h-.037l.11.954V66.5c.335.09.649.232.943.428v.355h-2.644v-.355c.147-.09.304-.17.472-.239.167-.069.344-.132.532-.19v-7.012a10.322 10.322 0 0 1-.93-.428v-.342h2.068l3.855 5.812.563 1.053h.049l-.061-1.053v-4.968a7.743 7.743 0 0 1-.496-.233 5.027 5.027 0 0 1-.447-.257v-.354zm11.565 8.566h-3.44v-.355c.18-.065.362-.123.545-.171.184-.05.382-.09.594-.123v-7.281h-1.872l-.649 1.75h-.306a7.762 7.762 0 0 1-.061-.557 28.958 28.958 0 0 1-.086-1.83h7.11c0 .164-.004.348-.012.55a37.34 37.34 0 0 1-.03.631l-.038.637c-.012.208-.031.398-.056.569h-.322l-.643-1.75h-1.86v7.281c.212.041.41.082.593.123.184.04.361.097.533.171v.355zm5.25-8.566h3.108v.353a5.45 5.45 0 0 1-.465.171c-.155.05-.31.093-.465.134v4.99c0 .431.047.79.14 1.08.094.288.231.52.41.695.18.175.402.301.667.378.266.078.565.116.9.116.644 0 1.146-.177 1.505-.53.36-.354.539-.938.539-1.751v-4.868a8.298 8.298 0 0 1-.527-.201c-.163-.07-.31-.14-.44-.214v-.353h2.606v.354c-.155.09-.312.172-.47.245-.16.073-.32.13-.484.171v4.908c0 .522-.07.97-.208 1.346-.14.375-.333.685-.581.93-.25.245-.551.426-.906.544a3.714 3.714 0 0 1-1.18.178c-1.02 0-1.8-.23-2.338-.691-.539-.461-.808-1.17-.808-2.124v-5.2a3.627 3.627 0 0 1-1.003-.307v-.354zm14.526.538c-.196 0-.357.004-.484.012a2.15 2.15 0 0 0-.348.049v3.635h.88c.564 0 1.01-.178 1.34-.535.331-.357.497-.827.497-1.41 0-.6-.176-1.042-.527-1.326-.35-.283-.804-.425-1.358-.425zm-.832 7.38c.187.04.367.083.538.128.171.044.339.1.502.165v.355H76.9v-.355c.18-.081.351-.143.514-.184.163-.04.327-.077.49-.11v-7.257a4.657 4.657 0 0 1-1.004-.306v-.354h1.077c.327 0 .685-.017 1.074-.05a13.77 13.77 0 0 1 1.134-.048c.401 0 .775.045 1.123.134.347.09.648.233.902.429.253.195.452.444.594.746.143.302.215.665.215 1.09 0 .595-.158 1.088-.473 1.48-.315.391-.743.673-1.282.844.35.555.717 1.106 1.1 1.652.384.547.784 1.09 1.2 1.628l.667.355v.306h-1.49l-.465-.343a12.96 12.96 0 0 1-1.15-1.67 14.122 14.122 0 0 1-.46-.857c-.142-.29-.286-.597-.433-.924H79.08v3.145zm14.477-7.918c-.008.326-.022.654-.043.985-.02.33-.051.663-.092.997h-.318l-.502-1.346h-2.668v3.243h1.995l.478-.906h.305c.05.808.05 1.632 0 2.472h-.305l-.478-.93h-1.995v3.415h2.815l.6-1.469h.306c.056.343.098.69.122 1.04.025.351.028.706.012 1.065h-6.033v-.355c.286-.13.62-.228 1.004-.294v-7.257a4.95 4.95 0 0 1-.502-.128 6.403 6.403 0 0 1-.502-.178v-.354h5.8zm5.862 7.721c.098.098.224.182.379.251.155.07.387.104.698.104.26 0 .505-.034.734-.104a1.74 1.74 0 0 0 .593-.306 1.421 1.421 0 0 0 .545-1.144c0-.326-.1-.6-.3-.82a3.06 3.06 0 0 0-.746-.587 12.707 12.707 0 0 0-.973-.502 5.367 5.367 0 0 1-.973-.581 3.059 3.059 0 0 1-.747-.808c-.2-.314-.3-.708-.3-1.18 0-.344.062-.65.184-.919s.295-.497.52-.685c.224-.188.492-.332.802-.434a3.32 3.32 0 0 1 1.04-.154c.498 0 .952.04 1.364.117.412.078.737.173.973.287 0 .14-.01.3-.03.484a16.585 16.585 0 0 1-.264 1.621h-.318l-.49-1.676a2.198 2.198 0 0 0-.561-.147 5.047 5.047 0 0 0-.723-.05c-.42 0-.757.117-1.012.35-.256.233-.383.557-.383.973 0 .334.1.616.301.844.202.228.454.432.757.612.304.18.63.353.98.52.348.167.674.361.978.581.304.22.556.482.757.784.201.302.302.677.302 1.125 0 .368-.067.702-.202 1.004a2.119 2.119 0 0 1-.581.77 2.65 2.65 0 0 1-.93.49 4.186 4.186 0 0 1-1.249.171c-.514 0-.975-.06-1.383-.183-.408-.122-.697-.253-.868-.391.007-.14.022-.306.042-.502a21.025 21.025 0 0 1 .165-1.211c.033-.196.066-.364.099-.502h.318l.502 1.798zM6.793 29.841v10.6c0 1.392-.077 2.531-.23 3.418-.152.886-.485 1.663-1 2.33-.61.801-1.373 1.349-2.288 1.645a9.803 9.803 0 0 1-2.83.472v-2.431c.552-.02 1.028-.11 1.429-.272a2.86 2.86 0 0 0 1.03-.7c.342-.344.566-.787.671-1.33.105-.543.158-1.12.158-1.73V29.84h3.06zm8.836 9.008c0 1.163.143 2.179.429 3.046.286.868.672 1.587 1.158 2.159a4.55 4.55 0 0 0 1.716 1.273 5.374 5.374 0 0 0 2.102.414c.743 0 1.439-.138 2.087-.414a4.345 4.345 0 0 0 1.673-1.273c.467-.572.84-1.291 1.116-2.16.276-.866.414-1.882.414-3.045 0-1.2-.143-2.235-.429-3.102-.286-.868-.671-1.583-1.158-2.145a4.478 4.478 0 0 0-1.716-1.245 5.546 5.546 0 0 0-2.102-.4c-.743 0-1.44.139-2.087.415-.649.277-1.207.7-1.673 1.272-.468.572-.84 1.292-1.115 2.16-.277.867-.415 1.883-.415 3.045zm5.405-9.294c1.239 0 2.383.2 3.431.6 1.049.401 1.954.992 2.717 1.774.763.782 1.358 1.754 1.787 2.917.43 1.163.644 2.498.644 4.003 0 1.487-.22 2.808-.658 3.96-.439 1.155-1.049 2.127-1.83 2.918a7.783 7.783 0 0 1-2.76 1.802c-1.058.41-2.207.614-3.446.614-1.239 0-2.383-.2-3.431-.6a7.453 7.453 0 0 1-2.717-1.773c-.763-.782-1.359-1.75-1.788-2.903-.428-1.153-.643-2.492-.643-4.018 0-1.487.22-2.807.658-3.96.438-1.154 1.048-2.126 1.83-2.917a7.792 7.792 0 0 1 2.76-1.802c1.058-.41 2.206-.615 3.446-.615zm14.126.286h3.06v10.781c0 1.793.333 3.089 1.001 3.89.667.8 1.735 1.2 3.203 1.2 1.448 0 2.502-.433 3.16-1.3.657-.868.986-2.017.986-3.447V29.841h3.06v10.982c0 2.497-.624 4.342-1.873 5.533-1.249 1.192-3.026 1.787-5.333 1.787-2.27 0-4.047-.595-5.334-1.787-1.287-1.191-1.93-3.084-1.93-5.676V29.84zm23.936 8.665h1.944c.572 0 1.097-.057 1.574-.172a3.76 3.76 0 0 0 1.258-.543 2.55 2.55 0 0 0 .843-.958c.2-.39.3-.862.3-1.415 0-1.068-.305-1.864-.914-2.388-.61-.525-1.487-.787-2.632-.787h-2.373v6.263zm-2.974-8.665h6.205c.953 0 1.797.139 2.531.415.734.276 1.349.658 1.845 1.144a4.667 4.667 0 0 1 1.115 1.73c.248.667.372 1.391.372 2.173 0 .706-.11 1.335-.329 1.888a5.23 5.23 0 0 1-.844 1.444c-.343.41-.729.762-1.158 1.058-.429.296-.863.53-1.301.7l4.633 7.464h-3.46l-3.976-6.92h-2.66v6.92h-2.973V29.841zm17.958 0h2.717l7.55 10.781c.343.496.667.992.972 1.487.305.497.562.944.772 1.344h.058a62.236 62.236 0 0 1-.143-4.218v-9.394h2.945v18.016h-2.716l-7.35-10.438a21.063 21.063 0 0 1-1.058-1.672c-.344-.601-.64-1.14-.887-1.616h-.057a69.4 69.4 0 0 1 .143 4.418v9.308H74.08V29.841zm21.506 0h11.152v2.46h-8.093v4.975h7.35v2.431h-7.35v5.691h8.18v2.46h-11.24V29.84zm18.102 0l4.29 7.721 4.29-7.72h3.288l-6.177 10.495v7.52h-3.06v-7.52l-6.006-10.496h3.375zm-62.29-14.285l-3.14-2.695c5.398-6.288 9.194-8.153 15.046-7.383 5.165.674 7.01-.757 9.805-2.925 1.016-.789 2.167-1.682 3.564-2.52l2.129 3.548c-1.185.71-2.187 1.488-3.156 2.24-2.953 2.292-6.007 4.659-12.88 3.76-4.827-.633-7.305 1.242-11.369 5.975z"/>
</svg>
