<svg xmlns="http://www.w3.org/2000/svg" width="51" height="51" viewBox="0 0 51 51">
    <path fill="#010002" fill-rule="nonzero" d="M25.301.976C11.571.976.438 12.108.438 25.839c0 13.73 11.132 24.863 24.863 24.863 13.73 0 24.863-11.132 24.863-24.863C50.164 12.105 39.032.976 25.301.976zm-6.216 36.906H12.87V16.127h6.215v21.755zM16.17 14.793a2.913 2.913 0 0 1-2.912-2.915 2.915 2.915 0 0 1 2.912-2.915 2.915 2.915 0 0 1 0 5.83zm24.67 23.089h-6.215V24.43c0-1.576-.45-2.679-2.387-2.679-3.21 0-3.829 2.679-3.829 2.679v13.45h-6.216V16.128h6.216v2.079a10.396 10.396 0 0 1 6.216-2.076c2.014 0 6.216 1.206 6.216 8.49v13.262z"/>
</svg>
