<svg xmlns="http://www.w3.org/2000/svg" width="107" height="100" viewBox="0 0 107 100">
    <g fill="#0A0B09" fill-rule="evenodd">
        <path d="M7.107 73.002c-.677-.218-1.256-.327-1.738-.327-.459 0-.822.084-1.091.252a.816.816 0 0 0-.403.739c0 .414.193.73.58.948.385.218.982.445 1.788.68.806.235 1.469.47 1.99.705.52.235.965.589 1.334 1.058.37.47.554 1.092.554 1.864 0 .75-.198 1.397-.595 1.94-.398.542-.944.954-1.638 1.234s-1.483.42-2.367.42a8.1 8.1 0 0 1-2.805-.504 7.576 7.576 0 0 1-2.384-1.377l1.058-2.166a7.155 7.155 0 0 0 2.048 1.293c.773.324 1.478.487 2.116.487.549 0 .977-.101 1.285-.303.307-.201.461-.492.461-.872a.985.985 0 0 0-.31-.748 2.399 2.399 0 0 0-.79-.479c-.319-.123-.758-.263-1.318-.42-.806-.223-1.463-.446-1.972-.67a3.47 3.47 0 0 1-1.318-1.025c-.37-.46-.555-1.07-.555-1.83 0-.706.19-1.324.57-1.856.382-.532.914-.94 1.596-1.226.683-.285 1.478-.428 2.385-.428.806 0 1.6.118 2.384.353a8.045 8.045 0 0 1 2.082.94l-1.024 2.2a8.935 8.935 0 0 0-1.923-.882M26.955 76.276c.397-.342.596-.842.596-1.502 0-.65-.199-1.14-.596-1.47-.397-.33-.971-.495-1.72-.495h-2.2v3.98h2.2c.749 0 1.323-.171 1.72-.513zm1.89-4.6c.816.71 1.225 1.715 1.225 3.013 0 1.366-.411 2.427-1.234 3.183-.823.755-1.979 1.133-3.468 1.133h-2.334v3.359h-2.653V70.609h4.987c1.5 0 2.659.356 3.476 1.066zM43.196 76.788h2.451c.74 0 1.307-.17 1.705-.512.397-.342.596-.842.596-1.502 0-.65-.2-1.14-.596-1.47-.398-.33-.966-.495-1.705-.495h-2.451v3.98zm4.567 5.576L45.9 79.005h-2.703v3.359h-2.653V70.609h5.104c1.534 0 2.72.356 3.56 1.066.84.711 1.26 1.716 1.26 3.014 0 .908-.188 1.683-.563 2.326-.375.644-.92 1.134-1.637 1.47l2.502 3.879h-3.006zM61.241 82.364h2.653V70.609h-2.653zM82.494 70.61h2.519v11.754h-2.418l-5.692-7.557v7.557h-2.536V70.609h2.418l5.71 7.59v-7.59M100.293 78.53h2.6v1.046c-.381.201-.773.361-1.176.478a4.018 4.018 0 0 1-1.125.177 3.638 3.638 0 0 1-1.873-.496 3.631 3.631 0 0 1-1.343-1.36 3.765 3.765 0 0 1-.495-1.906c0-.693.162-1.323.487-1.889a3.65 3.65 0 0 1 3.208-1.839c.57 0 1.14.118 1.712.353.57.236 1.075.56 1.511.974l1.495-1.897a6.83 6.83 0 0 0-2.158-1.277 7.227 7.227 0 0 0-2.56-.47c-1.2 0-2.288.264-3.267.79A5.923 5.923 0 0 0 95 73.387c-.56.924-.84 1.951-.84 3.081 0 1.142.275 2.175.823 3.099a5.934 5.934 0 0 0 2.25 2.183c.952.531 2.015.797 3.19.797.807 0 1.647-.142 2.52-.428.873-.286 1.623-.657 2.25-1.116v-4.69h-4.9v2.216M20.309 92.023h.758l2.55 6.382 2.541-6.382h.747l-2.939 7.16h-.738l-2.919-7.16M29.538 92.023h4.794v.635h-4.087v2.56h3.657v.635h-3.657v2.694h4.22v.636h-4.927v-7.16M42.823 92.023h.697v7.16h-.748l-4.435-6.064v6.064h-.707v-7.16h.748l4.445 6.064v-6.064M46.204 92.013h5.439v.645h-2.366v6.525h-.707v-6.525h-2.366v-.645M55.458 97.994c.4.41.955.615 1.665.615.71 0 1.264-.204 1.66-.615.396-.409.593-.983.593-1.72v-4.261h.707v4.26c0 .93-.26 1.658-.783 2.183-.522.525-1.248.789-2.177.789s-1.656-.264-2.182-.79c-.526-.524-.788-1.252-.788-2.181v-4.261h.706v4.26c0 .738.2 1.312.6 1.72M66.28 96.233c.683 0 1.21-.156 1.578-.466.369-.311.553-.76.553-1.348 0-.573-.184-1.01-.553-1.31-.369-.3-.895-.451-1.578-.451h-1.967v3.575h1.967zm2.048 2.95l-1.546-2.336c-.218.014-.386.02-.502.02h-1.967v2.316h-.706v-7.16h2.673c.895 0 1.586.206 2.075.62.487.413.732.998.732 1.756 0 .594-.144 1.09-.43 1.485-.287.397-.696.673-1.23.83l1.722 2.469h-.82zM72.447 92.023h4.794v.635h-4.087v2.56h3.657v.635h-3.657v2.694h4.22v.636h-4.927v-7.16M83.55 92.801a3.638 3.638 0 0 0-.982-.148c-.493 0-.887.098-1.184.292-.297.194-.446.459-.446.794 0 .293.083.532.246.716.164.185.366.331.605.436.239.106.567.224.983.353.485.144.876.286 1.173.425.297.141.55.344.758.61.208.267.312.618.312 1.055 0 .382-.107.72-.322 1.014-.216.294-.518.52-.907.681-.39.16-.836.24-1.342.24a3.75 3.75 0 0 1-1.46-.297 3.922 3.922 0 0 1-1.223-.787l.328-.585c.32.314.693.56 1.116.738.423.177.84.267 1.25.267.545 0 .98-.111 1.3-.333.321-.222.482-.521.482-.896 0-.302-.082-.547-.246-.738a1.633 1.633 0 0 0-.604-.441c-.24-.103-.574-.222-1.004-.358a10.42 10.42 0 0 1-1.168-.425 1.964 1.964 0 0 1-.747-.595c-.205-.263-.308-.606-.308-1.03 0-.361.103-.679.308-.951.204-.275.491-.485.86-.63.369-.148.795-.221 1.28-.221.39 0 .78.058 1.173.174.393.117.74.27 1.04.461l-.307.605a3.717 3.717 0 0 0-.964-.426M41.425 3.78h24.337l9.277 15.963H63.917L41.425 3.78zm33.642 27.256l1.12.794-9.708 16.816L29.809 22.5l-1.104-.788L38.407 5.02l36.66 26.017zM39.132 49.895l-9.297-16.102h11.063l22.584 16.102h-24.35zM79.83 22.5L67.35 1.023H37.54L25.06 22.5l11.971 8.536H25.06l12.48 21.616H67.35L79.83 31.036 67.802 22.5H79.83z"/>
    </g>
</svg>
